<svg width="375" height="667" viewBox="0 0 375 667" fill="none" xmlns="http://www.w3.org/2000/svg">

  <!-- Background -->
  <rect width="375" height="667" fill="#F5F2ED"/>

  <!-- Header -->
  <rect x="0" y="0" width="375" height="88" fill="white"/>
  <rect x="16" y="16" width="56" height="56" rx="8" fill="#E6DFF4"/>
  <text x="50" y="560" font-family="Arial, sans-serif" font-size="12" fill="#6b7280">Tough day</text>
  <text x="310" y="560" font-family="Arial, sans-serif" font-size="12" fill="#6b7280" text-anchor="end">Amazing day</text>
  
  <!-- Progress Cards -->
  <g transform="translate(30, 110)">
    <!-- Stars Earned Card -->
    <rect x="0" y="0" width="100" height="80" rx="8" fill="#dcfce7" stroke="#bbf7d0"/>
    <text x="50" y="25" font-family="Arial, sans-serif" font-size="24" font-weight="bold" fill="#15803d" text-anchor="middle">3</text>
    <text x="50" y="45" font-family="Arial, sans-serif" font-size="12" font-weight="medium" fill="#15803d" text-anchor="middle">Stars Earned</text>
    
    <!-- Intention Set Card -->
    <rect x="115" y="0" width="100" height="80" rx="8" fill="#dbeafe" stroke="#bfdbfe"/>
    <circle cx="165" cy="30" r="8" fill="none" stroke="#2563eb" stroke-width="2"/>
    <path d="M160 30 L164 34 L172 26" stroke="#10b981" stroke-width="2" fill="none"/>
    <text x="165" y="55" font-family="Arial, sans-serif" font-size="12" font-weight="medium" fill="#1d4ed8" text-anchor="middle">Intention Set</text>
    
    <!-- Evening Complete Card -->
    <rect x="230" y="0" width="110" height="80" rx="8" fill="#f3e8ff" stroke="#e9d5ff"/>
    <circle cx="285" cy="30" r="8" fill="none" stroke="#9333ea" stroke-width="2"/>
    <path d="M280 30 L284 34 L292 26" stroke="#10b981" stroke-width="2" fill="none"/>
    <text x="285" y="55" font-family="Arial, sans-serif" font-size="12" font-weight="medium" fill="#7c3aed" text-anchor="middle">Evening Done</text>
  </g>

  <!-- Main Content Card -->
  <rect x="30" y="210" width="340" height="320" rx="12" fill="#ffffff" stroke="#e5e7eb"/>

  <circle cx="60" cy="240" r="15" fill="#E6DFF4"/>
  <path d="M52 235 Q60 230 68 235 Q60 245 52 235" fill="#A89C90"/>
  <text x="85" y="235" font-family="Arial, sans-serif" font-size="16" font-weight="bold" fill="#111827">Evening Reflection</text>
  <text x="85" y="255" font-family="Arial, sans-serif" font-size="13" fill="#6b7280">Reflect on your progress and growth</text>
  <text x="96" y="158" fill="#6B7280" font-family="Inter" font-size="14">Reflect on your progress and growth</text>

  <rect x="50" y="275" width="300" height="90" rx="8" fill="#f8fafc" stroke="#e2e8f0"/>
  <text x="60" y="295" font-family="Arial, sans-serif" font-size="13" font-weight="medium" fill="#374151">Earlier today, you set an intention to</text>
  <text x="60" y="310" font-family="Arial, sans-serif" font-size="13" font-weight="medium" fill="#374151">focus on: "Track every expense today."</text>
  <text x="60" y="325" font-family="Arial, sans-serif" font-size="13" font-weight="medium" fill="#374151">How did that go for you?</text>
  <text x="48" y="236" fill="#111827" font-family="Inter" font-size="13" font-weight="500">How did that go for you?</text>
  <text x="48" y="258" fill="#A89C90" font-family="Inter" font-size="11">• What moments made you feel proud?</text>
  <text x="60" y="345" font-family="Arial, sans-serif" font-size="11" fill="#9ca3af">• What moments made you feel proud?</text>
  <text x="60" y="358" font-family="Arial, sans-serif" font-size="11" fill="#9ca3af">• Any challenges sticking to your intention?</text>

  <!-- Text Input Section -->
  <text x="50" y="390" font-family="Arial, sans-serif" font-size="14" font-weight="medium" fill="#374151">Share whatever's on your mind - there's no</text>
  <text x="50" y="405" font-family="Arial, sans-serif" font-size="14" font-weight="medium" fill="#374151">right or wrong answer:</text>

  <!-- Text Area -->
  <rect x="32" y="352" width="311" height="90" rx="8" fill="white" stroke="#C7BFB4"/>
  <text x="48" y="372" fill="#9CA3AF" font-family="Inter" font-size="13">I felt... Today I... Tomorrow I want to...</text>
  <text x="48" y="390" fill="#374151" font-family="Inter" font-size="13">I actually did pretty well! I wrote down</text>
  <rect x="50" y="420" width="300" height="60" rx="8" fill="#ffffff" stroke="#d1d5db"/>
  <text x="60" y="440" font-family="Arial, sans-serif" font-size="12" fill="#9ca3af">I felt... Today I... Tomorrow I want to...</text>

  <!-- Rating Section -->
  <text x="50" y="510" font-family="Arial, sans-serif" font-size="14" font-weight="medium" fill="#374151">How are you feeling about today?</text>
  <text x="50" y="525" font-family="Arial, sans-serif" font-size="12" fill="#6b7280">(1 = rough day, 5 = amazing day)</text>

  <!-- Star Rating -->
  <g transform="translate(32, 500)">
    <circle cx="20" cy="20" r="16" fill="#FACC15"/>
    <polygon points="20,8 23,14 30,14 25,18 27,25 20,21 13,25 15,18 10,14 17,14" fill="#FEF3C7"/>
    <circle cx="60" cy="20" r="16" fill="#FACC15"/>
    <polygon points="60,8 63,14 70,14 65,18 67,25 60,21 53,25 55,18 50,14 57,14" fill="#FEF3C7"/>
    <circle cx="100" cy="20" r="16" fill="#FACC15"/>
    <polygon points="100,8 103,14 110,14 105,18 107,25 100,21 93,25 95,18 90,14 97,14" fill="#FEF3C7"/>
    <circle cx="140" cy="20" r="16" fill="#FACC15"/>
    <polygon points="140,8 143,14 150,14 145,18 147,25 140,21 133,25 135,18 130,14 137,14" fill="#FEF3C7"/>
    <circle cx="180" cy="20" r="16" fill="#E5E7EB"/>
    <polygon points="180,8 183,14 190,14 185,18 187,25 180,21 173,25 175,18 170,14 177,14" fill="#F9FAFB"/>
  </g>

  <!-- Labels -->
  <text x="32" y="550" fill="#6B7280" font-family="Inter" font-size="13">Tough day</text>
  <text x="295" y="550" fill="#6B7280" font-family="Inter" font-size="13" text-anchor="end">Amazing day</text>

  <!-- Submit Button -->
  <rect x="50" y="575" width="300" height="40" rx="8" fill="#A89C90"/>
  <text x="200" y="598" font-family="Arial, sans-serif" font-size="14" font-weight="medium" fill="#ffffff" text-anchor="middle">Share My Reflection</text>

</svg>