<svg width="375" height="812" viewBox="0 0 375 812" fill="none" xmlns="http://www.w3.org/2000/svg">
  <!-- Background -->
  <rect width="375" height="812" fill="#F5F2ED"/>
  
  <!-- Main Content Card -->
  <rect x="16" y="20" width="343" height="772" rx="12" fill="white" stroke="#E5E7EB"/>
  
  <!-- Morning Boost Header -->
  <rect x="32" y="36" width="48" height="48" rx="8" fill="#F3E3C6"/>
  <!-- Sun Icon -->
  <circle cx="56" cy="60" r="12" stroke="#C9A99A" stroke-width="2" fill="none"/>
  <path d="M56 48v4M56 72v4M68 60h-4M44 60h4M65.66 51.34l-2.83 2.83M54.17 62.83l-2.83 2.83M65.66 68.66l-2.83-2.83M54.17 57.17l-2.83-2.83" stroke="#C9A99A" stroke-width="2"/>
  
  <text x="96" y="56" font-family="Inter" font-size="20" font-weight="700" fill="#111827">Morning Boost</text>
  <text x="96" y="76" font-family="Inter" font-size="16" fill="#6B7280">Start your day with intention and inspiration</text>
  
  <!-- Quote Section -->
  <rect x="32" y="108" width="311" height="120" rx="8" fill="#E6DFF4" stroke="#E6DFF4"/>
  <text x="48" y="128" font-family="Inter" font-size="14" fill="#A89C90">"</text>
  <text x="48" y="148" font-family="Crimson Text" font-size="16" font-style="italic" fill="#111827">It's not how much money you make,</text>
  <text x="48" y="168" font-family="Crimson Text" font-size="16" font-style="italic" fill="#111827">but how much money you keep, how hard</text>
  <text x="48" y="188" font-family="Crimson Text" font-size="16" font-style="italic" fill="#111827">it works for you, and how many</text>
  <text x="48" y="208" font-family="Crimson Text" font-size="16" font-style="italic" fill="#111827">generations you keep it for.</text>
  <text x="48" y="220" font-family="Inter" font-size="14" font-weight="600" fill="#A89C90">— Robert Kiyosaki</text>
  
  <!-- Today's Tip Section -->
  <rect x="32" y="248" width="311" height="80" rx="8" fill="#F3E3C6" stroke="#F3E3C6"/>
  <circle cx="56" cy="272" r="8" fill="#C9A99A"/>
  <text x="56" y="276" font-family="Inter" font-size="12" font-weight="600" fill="white" text-anchor="middle">💡</text>
  <text x="76" y="276" font-family="Inter" font-size="16" font-weight="700" fill="#C9A99A">Today's Tip:</text>
  <text x="48" y="296" font-family="Inter" font-size="14" fill="#111827">Set up an automatic transfer to savings, even if it's</text>
  <text x="48" y="312" font-family="Inter" font-size="14" fill="#111827">just $5 per week.</text>
  
  <!-- Intention Setting Section -->
  <circle cx="56" cy="364" r="16" fill="#6B7280"/>
  <path d="M52 364l4 4 8-8" stroke="white" stroke-width="2" fill="none"/>
  
  <text x="88" y="360" font-family="Inter" font-size="18" font-weight="600" fill="#374151">What's your main intention</text>
  <text x="88" y="380" font-family="Inter" font-size="18" font-weight="600" fill="#374151">for today?</text>
  
  <!-- Text Input Area -->
  <rect x="32" y="404" width="311" height="120" rx="8" fill="white" stroke="#C7BFB4"/>
  <text x="48" y="424" font-family="Inter" font-size="14" fill="#9CA3AF">Based on today's inspiration, I intend to focus on...</text>
  <text x="48" y="448" font-family="Inter" font-size="14" fill="#111827">Track every expense today and reflect on</text>
  <text x="48" y="468" font-family="Inter" font-size="14" fill="#111827">whether each purchase aligns with my</text>
  <text x="48" y="488" font-family="Inter" font-size="14" fill="#111827">financial goals and values.</text>
  
  <!-- Set Intention Button -->
  <rect x="32" y="544" width="311" height="48" rx="8" fill="#C9A99A"/>
  <text x="187.5" y="572" font-family="Inter" font-size="16" font-weight="600" fill="white" text-anchor="middle">Set My Intention</text>
  
  <!-- Today's Progress Section -->
  <text x="32" y="632" font-family="Inter" font-size="20" font-weight="700" fill="#111827">Today's Progress</text>
  
  <!-- Progress Cards -->
  <rect x="32" y="652" width="95" height="80" rx="8" fill="#A3A69C1A" stroke="#A3A69C33"/>
  <text x="79.5" y="680" font-family="Inter" font-size="24" font-weight="700" fill="#7F8C78" text-anchor="middle">0</text>
  <text x="79.5" y="700" font-family="Inter" font-size="12" font-weight="500" fill="#7F8C78" text-anchor="middle">Stars Earned</text>
  
  <rect x="140" y="652" width="95" height="80" rx="8" fill="#D6DBE280" stroke="#D6DBE280"/>
  <text x="187.5" y="680" font-family="Inter" font-size="24" font-weight="700" fill="#2563EB" text-anchor="middle">⭕</text>
  <text x="187.5" y="700" font-family="Inter" font-size="12" font-weight="500" fill="#A89C90" text-anchor="middle">Intention Set</text>
  
  <rect x="248" y="652" width="95" height="80" rx="8" fill="#E6DFF480" stroke="#E6DFF4"/>
  <text x="295.5" y="680" font-family="Inter" font-size="24" font-weight="700" fill="#9333EA" text-anchor="middle">⭕</text>
  <text x="295.5" y="700" font-family="Inter" font-size="12" font-weight="500" fill="#A89C90" text-anchor="middle">Evening Todo</text>
</svg>