<svg width="375" height="812" viewBox="0 0 375 812" fill="none" xmlns="http://www.w3.org/2000/svg">
  <!-- Background -->
  <rect width="375" height="812" fill="#F5F2ED"/>
  
  <!-- Main Card -->
  <rect x="20" y="20" width="335" height="772" rx="12" fill="white" stroke="#E5E7EB"/>
  
  <!-- Morning Boost Header -->
  <rect x="40" y="40" width="48" height="48" rx="8" fill="#F3E3C6"/>
  <!-- Sun Icon -->
  <circle cx="64" cy="64" r="12" fill="#C9A99A"/>
  <path d="M64 58v12M70 64h-12M68.5 59.5l-9 9M59.5 59.5l9 9" stroke="white" stroke-width="1.5" stroke-linecap="round"/>
  
  <text x="108" y="58" font-family="Inter, sans-serif" font-size="18" font-weight="700" fill="#111827">Morning Boost</text>
  <text x="108" y="76" font-family="Inter, sans-serif" font-size="13" fill="#6B7280">Start your day with intention</text>
  
  <!-- Quote Box -->
  <rect x="40" y="108" width="295" height="100" rx="8" fill="#E6DFF4" stroke="#E6DFF4"/>
  <text x="50" y="128" font-family="Inter, sans-serif" font-size="14" fill="#6B7280">"</text>
  <text x="60" y="128" font-family="Crimson Text, serif" font-size="16" font-style="italic" fill="#374151">It's not how much money you make,</text>
  <text x="60" y="148" font-family="Crimson Text, serif" font-size="16" font-style="italic" fill="#374151">but how much you keep, how hard</text>
  <text x="60" y="168" font-family="Crimson Text, serif" font-size="16" font-style="italic" fill="#374151">it works for you.</text>
  <text x="60" y="188" font-family="Inter, sans-serif" font-size="14" font-weight="600" fill="#A89C90">— Robert Kiyosaki</text>
  
  <!-- Today's Tip Box -->
  <rect x="40" y="228" width="295" height="80" rx="8" fill="#F3E3C6" stroke="#F3E3C6"/>
  <!-- Lightbulb Icon -->
  <circle cx="60" cy="258" r="8" fill="#C9A99A"/>
  <path d="M60 252v12M58 260h4" stroke="white" stroke-width="1" stroke-linecap="round"/>
  <text x="80" y="252" font-family="Inter, sans-serif" font-size="16" font-weight="600" fill="#C9A99A">💡 Today's Tip:</text>
  <text x="80" y="272" font-family="Inter, sans-serif" font-size="14" fill="#374151">Set up automatic savings,</text>
  <text x="80" y="288" font-family="Inter, sans-serif" font-size="14" fill="#374151">even if it's just $5 per week.</text>
  
  <!-- Intention Section -->
  <circle cx="64" cy="338" r="16" fill="#6B7280"/>
  <circle cx="64" cy="338" r="6" fill="white"/>
  <text x="96" y="338" font-family="Inter, sans-serif" font-size="18" font-weight="600" fill="#374151">What's your main intention</text>
  <text x="96" y="358" font-family="Inter, sans-serif" font-size="18" font-weight="600" fill="#374151">for today?</text>
  
  <!-- Text Input Box -->
  <rect x="40" y="378" width="295" height="120" rx="8" fill="white" stroke="#C7BFB4"/>
  <text x="50" y="398" font-family="Inter, sans-serif" font-size="12" fill="#9CA3AF">Based on today's inspiration, I intend to focus on...</text>
  <text x="50" y="428" font-family="Inter, sans-serif" font-size="14" fill="#374151">Track every expense today and reflect</text>
  <text x="50" y="448" font-family="Inter, sans-serif" font-size="14" fill="#374151">on whether each purchase aligns</text>
  <text x="50" y="468" font-family="Inter, sans-serif" font-size="14" fill="#374151">with my financial goals.</text>
  
  <!-- Set Intention Button -->
  <rect x="40" y="518" width="295" height="48" rx="8" fill="#C9A99A"/>
  <text x="187.5" y="547" font-family="Inter, sans-serif" font-size="16" font-weight="600" fill="white" text-anchor="middle">Set My Intention</text>
  
  <!-- Today's Progress -->
  <text x="40" y="596" font-family="Inter, sans-serif" font-size="24" font-weight="700" fill="#111827">Today's Progress</text>
  
  <!-- Progress Cards -->
  <!-- Stars Earned -->
  <rect x="40" y="616" width="85" height="80" rx="8" fill="#D1FAE5" stroke="#A7F3D0"/>
  <text x="82.5" y="640" font-family="Inter, sans-serif" font-size="24" font-weight="700" fill="#059669" text-anchor="middle">0</text>
  <text x="82.5" y="658" font-family="Inter, sans-serif" font-size="12" font-weight="500" fill="#059669" text-anchor="middle">Stars Earned</text>
  
  <!-- Intention Set -->
  <rect x="145" y="616" width="85" height="80" rx="8" fill="#DBEAFE" stroke="#BFDBFE"/>
  <circle cx="187.5" cy="646" r="12" stroke="#DC2626" stroke-width="2" fill="none"/>
  <text x="187.5" y="668" font-family="Inter, sans-serif" font-size="12" font-weight="500" fill="#1D4ED8" text-anchor="middle">Intention Set</text>
  
  <!-- Evening Todo -->
  <rect x="250" y="616" width="85" height="80" rx="8" fill="#F3E8FF" stroke="#E9D5FF"/>
  <circle cx="292.5" cy="646" r="12" stroke="#DC2626" stroke-width="2" fill="none"/>
  <text x="292.5" y="668" font-family="Inter, sans-serif" font-size="12" font-weight="500" fill="#7C3AED" text-anchor="middle">Evening Todo</text>
</svg>