<svg width="375" height="812" viewBox="0 0 375 812" fill="none" xmlns="http://www.w3.org/2000/svg">
  <!-- Background -->
  <rect width="375" height="812" fill="#F5F2ED"/>
  
  <!-- Main Card -->
  <rect x="20" y="20" width="335" height="772" rx="12" fill="white" stroke="#E5E7EB"/>
  
  <!-- Evening Reflection Header -->
  <rect x="40" y="40" width="48" height="48" rx="8" fill="#E6DFF4"/>
  <!-- Moon Icon -->
  <path d="M58 64c0-6.627 5.373-12 12-12 1.5 0 2.9.3 4.2.8-2.4 1.2-4 3.7-4 6.7 0 4.1 3.3 7.5 7.5 7.5 3 0 5.5-1.6 6.7-4 .5 1.3.8 2.7.8 4.2 0 6.627-5.373 12-12 12s-12-5.373-12-12z" fill="#A89C90"/>
  
  <text x="108" y="58" font-family="Inter, sans-serif" font-size="18" font-weight="700" fill="#111827">Evening Reflection</text>
  <text x="108" y="76" font-family="Inter, sans-serif" font-size="13" fill="#6B7280">Reflect on your progress and growth</text>
  
  <!-- Prompt Box -->
  <rect x="40" y="108" width="295" height="140" rx="8" fill="#E6DFF4" stroke="#E6DFF4"/>
  <text x="50" y="128" font-family="Inter, sans-serif" font-size="16" font-weight="500" fill="#374151">Earlier today, you set an intention to</text>
  <text x="50" y="148" font-family="Inter, sans-serif" font-size="16" font-weight="500" fill="#374151">focus on: "Track every expense today."</text>
  <text x="50" y="168" font-family="Inter, sans-serif" font-size="16" font-weight="500" fill="#374151">How did that go for you?</text>
  
  <text x="50" y="198" font-family="Inter, sans-serif" font-size="14" fill="#A89C90">• What moments made you feel proud?</text>
  <text x="50" y="218" font-family="Inter, sans-serif" font-size="14" fill="#A89C90">• Any challenges sticking to your intention?</text>
  <text x="50" y="238" font-family="Inter, sans-serif" font-size="14" fill="#A89C90">• What did you learn about yourself?</text>
  
  <!-- Share Section -->
  <text x="40" y="278" font-family="Inter, sans-serif" font-size="15" font-weight="600" fill="#374151">Share whatever's on your mind - there's no</text>
  <text x="40" y="298" font-family="Inter, sans-serif" font-size="15" font-weight="600" fill="#374151">right or wrong answer:</text>
  
  <!-- Text Input Box -->
  <rect x="40" y="318" width="295" height="120" rx="8" fill="white" stroke="#C7BFB4"/>
  <text x="50" y="338" font-family="Inter, sans-serif" font-size="14" fill="#9CA3AF">I felt... Today I... Tomorrow I want to...</text>
  <g transform="translate(30, 1350)">
  <text x="50" y="388" font-family="Inter, sans-serif" font-size="14" fill="#374151">every coffee, lunch, and parking meter.</text>
    <rect x="0" y="0" width="110" height="100" rx="10" fill="#d1fae5" stroke="#a7f3d0" stroke-width="1"/>
    <text x="55" y="35" text-anchor="middle" font-size="36" font-weight="bold" fill="#065f46">3</text>
    <text x="55" y="55" text-anchor="middle" font-size="12" fill="#047857">Stars Earned</text>
  <text x="40" y="468" font-family="Inter, sans-serif" font-size="18" font-weight="600" fill="#374151">How are you feeling about today?</text>
  <text x="40" y="488" font-family="Inter, sans-serif" font-size="14" fill="#6B7280">(1 = rough day, 5 = amazing day)</text>
    <rect x="125" y="0" width="110" height="100" rx="10" fill="#dbeafe" stroke="#93c5fd" stroke-width="1"/>
    <text x="180" y="25" text-anchor="middle" font-size="24" fill="#16a34a">✓</text>
    <text x="180" y="55" text-anchor="middle" font-size="12" fill="#1e40af">Intention Set</text>
    <path d="M12 2l3.09 6.26L22 9.27l-5 4.87 1.18 6.88L12 17.77l-6.18 3.25L7 14.14 2 9.27l6.91-1.01L12 2z" fill="#FACC15"/>
    <path d="M62 2l3.09 6.26L72 9.27l-5 4.87 1.18 6.88L62 17.77l-6.18 3.25L57 14.14 52 9.27l6.91-1.01L62 2z" fill="#FACC15"/>
    <rect x="250" y="0" width="110" height="100" rx="10" fill="#e9d5ff" stroke="#c4b5fd" stroke-width="1"/>
    <text x="305" y="25" text-anchor="middle" font-size="24" fill="#16a34a">✓</text>
    <text x="305" y="55" text-anchor="middle" font-size="12" fill="#7c3aed">Evening Done</text>
  </g>
  
  <text x="40" y="568" font-family="Inter, sans-serif" font-size="14" fill="#6B7280">Tough day</text>
  <text x="295" y="568" font-family="Inter, sans-serif" font-size="14" fill="#6B7280" text-anchor="end">Amazing day</text>
  
  <!-- Share Button -->
  <rect x="40" y="588" width="295" height="48" rx="8" fill="#A89C90"/>
  <text x="187.5" y="617" font-family="Inter, sans-serif" font-size="16" font-weight="600" fill="white" text-anchor="middle">Share My Reflection</text>
  
  <!-- Today's Progress -->
  <text x="40" y="666" font-family="Inter, sans-serif" font-size="24" font-weight="700" fill="#111827">Today's Progress</text>
  
  <!-- Progress Cards -->
  <g transform="translate(37, 1340)">
  <rect x="40" y="686" width="85" height="80" rx="8" fill="#D1FAE5" stroke="#A7F3D0"/>
  <text x="82.5" y="710" font-family="Inter, sans-serif" font-size="24" font-weight="700" fill="#059669" text-anchor="middle">3</text>
  <text x="82.5" y="728" font-family="Inter, sans-serif" font-size="12" font-weight="500" fill="#059669" text-anchor="middle">Stars Earned</text>
  
  <!-- Intention Set -->
  <rect x="145" y="686" width="85" height="80" rx="8" fill="#DBEAFE" stroke="#BFDBFE"/>
  <path d="M180 716l5 5 10-10" stroke="#059669" stroke-width="3" fill="none" stroke-linecap="round" stroke-linejoin="round"/>
  <text x="187.5" y="738" font-family="Inter, sans-serif" font-size="12" font-weight="500" fill="#1D4ED8" text-anchor="middle">Intention Set</text>
  
  <!-- Evening Done -->
  <rect x="250" y="686" width="85" height="80" rx="8" fill="#F3E8FF" stroke="#E9D5FF"/>
  <path d="M285 716l5 5 10-10" stroke="#059669" stroke-width="3" fill="none" stroke-linecap="round" stroke-linejoin="round"/>
  <text x="292.5" y="738" font-family="Inter, sans-serif" font-size="12" font-weight="500" fill="#7C3AED" text-anchor="middle">Evening Done</text>
</svg>