<svg viewBox="0 0 375 812" xmlns="http://www.w3.org/2000/svg">
  <!-- Background -->
  <rect width="375" height="812" fill="#F5F2ED"/>
  
  <!-- Header -->
  <rect x="0" y="0" width="375" height="88" fill="white"/>
  <rect x="0" y="87" width="375" height="1" fill="#E5E7EB"/>
  
  <!-- Logo and title -->
  <circle cx="32" cy="44" r="16" fill="#A3A69C" opacity="0.2"/>
  <path d="M24 36h16v16H24z" fill="#7F8C78"/>
  <text x="56" y="40" font-family="Inter, sans-serif" font-size="16" font-weight="600" fill="#111827">The Mindful Money App</text>
  <text x="56" y="56" font-family="Inter, sans-serif" font-size="14" fill="#6B7280">Welcome back, Sarah</text>
  
  <!-- Morning Boost Header -->
  <rect x="16" y="104" width="343" height="60" rx="12" fill="white"/>
  <circle cx="40" cy="124" r="12" fill="#F3E3C6"/>
  <path d="M34 118l12 12-12 12" stroke="#C9A99A" stroke-width="2" fill="none"/>
  <text x="64" y="122" font-family="Inter, sans-serif" font-size="18" font-weight="700" fill="#111827">Morning Boost</text>
  <text x="64" y="140" font-family="Inter, sans-serif" font-size="14" fill="#6B7280">Start your day with intention and inspiration</text>
  
  <!-- Quote Section -->
  <rect x="16" y="180" width="343" height="120" rx="12" fill="#E8F5E8" stroke="#BBF7D0"/>
  <path d="M28 196h8v8h-8z" fill="#059669" opacity="0.6"/>
  <text x="48" y="204" font-family="Crimson Text, serif" font-size="16" font-weight="500" font-style="italic" fill="#065F46">
    <tspan x="48" dy="0">"The real measure of your wealth is how</tspan>
    <tspan x="48" dy="20">much you'd be worth if you lost all</tspan>
    <tspan x="48" dy="20">your money."</tspan>
  </text>
  <text x="48" y="280" font-family="Inter, sans-serif" font-size="14" font-weight="600" fill="#065F46">— Anonymous</text>
  
  <!-- Tip Section -->
  <rect x="16" y="316" width="343" height="100" rx="12" fill="#FEF3C7" stroke="#F3E3C6"/>
  <text x="32" y="340" font-family="Inter, sans-serif" font-size="16" font-weight="700" fill="#C9A99A">💡 Today's Tip:</text>
  <text x="32" y="360" font-family="Inter, sans-serif" font-size="14" fill="#111827">
    <tspan x="32" dy="0">Start tracking every expense for the next week to</tspan>
    <tspan x="32" dy="18">understand where your money goes.</tspan>
  </text>
  
  <!-- Intention Setting -->
  <rect x="16" y="432" width="343" height="180" rx="12" fill="white" stroke="#C7BFB4"/>
  <text x="32" y="456" font-family="Inter, sans-serif" font-size="16" font-weight="600" fill="#374151">
    🎯 What's your main intention or focus for today?
  </text>
  
  <!-- Text Area -->
  <rect x="32" y="472" width="311" height="80" rx="8" fill="white" stroke="#C7BFB4"/>
  <text x="40" y="492" font-family="Inter, sans-serif" font-size="14" fill="#111827">
    <tspan x="40" dy="0">Today I intend to track every purchase I make,</tspan>
    <tspan x="40" dy="16">no matter how small, so I can see where my</tspan>
    <tspan x="40" dy="16">money actually goes instead of wondering</tspan>
    <tspan x="40" dy="16">where it all went at the end of the month.</tspan>
  </text>
  
  <!-- Set Intention Button -->
  <rect x="32" y="568" width="311" height="44" rx="8" fill="#C9A99A"/>
  <text x="187.5" y="594" font-family="Inter, sans-serif" font-size="16" font-weight="600" fill="white" text-anchor="middle">Set My Intention</text>
  
  <!-- Progress Cards -->
  <text x="32" y="644" font-family="Inter, sans-serif" font-size="16" font-weight="600" fill="#111827">Today's Progress</text>
  
  <rect x="16" y="656" width="107" height="80" rx="8" fill="#A3A69C" opacity="0.1" stroke="#A3A69C" opacity="0.2"/>
  <text x="69.5" y="680" font-family="Inter, sans-serif" font-size="24" font-weight="700" fill="#7F8C78" text-anchor="middle">1</text>
  <text x="69.5" y="700" font-family="Inter, sans-serif" font-size="12" font-weight="500" fill="#7F8C78" text-anchor="middle">Stars Earned</text>
  
  <rect x="134" y="656" width="107" height="80" rx="8" fill="#D6DBE2" opacity="0.3" stroke="#D6DBE2" opacity="0.5"/>
  <text x="187.5" y="684" font-family="Inter, sans-serif" font-size="20" fill="#2563EB" text-anchor="middle">⭕</text>
  <text x="187.5" y="704" font-family="Inter, sans-serif" font-size="12" font-weight="500" fill="#A89C90" text-anchor="middle">Intention Set</text>
  
  <rect x="252" y="656" width="107" height="80" rx="8" fill="#E6DFF4" opacity="0.5" stroke="#E6DFF4"/>
  <text x="305.5" y="684" font-family="Inter, sans-serif" font-size="20" fill="#7C3AED" text-anchor="middle">⭕</text>
  <text x="305.5" y="704" font-family="Inter, sans-serif" font-size="12" font-weight="500" fill="#A89C90" text-anchor="middle">Evening Complete</text>
</svg>